<?xml version="1.0" standalone="no"?>
<!DOCTYPE svg PUBLIC "-//W3C//DTD SVG 20010904//EN"
 "http://www.w3.org/TR/2001/REC-SVG-20010904/DTD/svg10.dtd">
<svg version="1.0" xmlns="http://www.w3.org/2000/svg"
 width="96.000000pt" height="96.000000pt" viewBox="0 0 96.000000 96.000000"
 preserveAspectRatio="xMidYMid meet">
<metadata>
Created by potrace 1.14, written by Peter Selinger 2001-2017
</metadata>
<g transform="translate(0.000000,96.000000) scale(0.100000,-0.100000)"
fill="#000000" stroke="none">
<path d="M374 906 c-3 -8 4 -28 16 -44 15 -20 20 -37 15 -51 -8 -27 -14 -27
-85 9 -49 25 -70 30 -125 29 -60 -1 -70 2 -106 31 -53 42 -74 35 -65 -23 18
-114 58 -174 135 -208 62 -26 80 -60 50 -90 -26 -26 -67 -20 -121 17 -45 32
-60 25 -52 -24 8 -53 42 -108 85 -138 54 -37 91 -95 87 -136 -3 -31 -5 -33
-43 -34 -29 0 -41 -5 -43 -17 -5 -26 43 -102 83 -133 32 -24 131 -62 122 -46
-53 90 -78 207 -73 347 5 166 49 278 132 342 37 27 41 28 186 31 81 2 148 7
148 12 0 10 -71 75 -98 89 -42 22 -111 41 -175 46 -54 5 -68 3 -73 -9z"/>
<path d="M423 715 c-37 -16 -75 -69 -105 -146 -28 -73 -35 -276 -12 -363 32
-124 81 -189 151 -202 97 -18 180 118 190 314 6 101 -11 247 -28 258 -5 3 -9
12 -9 20 0 25 -59 103 -90 119 -35 18 -55 18 -97 0z m76 -179 c61 -99 41 -339
-32 -374 -19 -9 -32 -10 -47 -2 -89 47 -87 376 3 409 32 12 55 2 76 -33z"/>
<path d="M428 522 c-41 -48 -48 -216 -13 -286 11 -22 25 -40 30 -40 6 -1 19
17 30 39 27 53 28 213 2 262 -22 41 -31 46 -49 25z"/>
<path d="M604 686 c18 -24 36 -55 40 -69 4 -18 21 -31 67 -51 33 -14 62 -26
65 -26 9 0 -31 88 -58 126 -34 47 -64 64 -113 64 l-35 0 34 -44z"/>
<path d="M746 695 c14 -19 36 -58 48 -87 11 -29 24 -55 27 -58 7 -6 69 46 69
58 0 5 -14 28 -31 51 -30 42 -79 71 -119 71 -20 0 -20 -1 6 -35z"/>
<path d="M866 527 l-37 -32 8 -71 8 -72 48 32 c45 29 47 33 42 66 -11 75 -18
100 -25 105 -4 2 -24 -10 -44 -28z"/>
<path d="M676 512 c10 -53 12 -67 13 -89 1 -17 14 -29 51 -48 28 -14 54 -23
59 -21 6 4 -5 138 -12 142 -1 0 -28 10 -59 22 l-57 21 5 -27z"/>
<path d="M887 337 c-26 -18 -49 -41 -51 -52 -2 -11 -8 -41 -14 -67 l-9 -47 59
30 c32 16 58 33 59 37 0 4 2 35 6 70 3 34 3 62 2 61 -2 0 -25 -15 -52 -32z"/>
<path d="M685 284 c-7 -71 -8 -70 47 -103 l36 -22 8 23 c9 26 9 29 18 80 6 37
5 38 -44 63 -27 14 -51 25 -54 25 -2 0 -7 -30 -11 -66z"/>
<path d="M651 130 c-6 -21 -27 -60 -46 -85 l-35 -45 36 0 c19 0 48 7 64 15 30
15 80 79 80 102 0 10 -67 53 -83 53 -2 0 -9 -18 -16 -40z"/>
<path d="M845 143 c-27 -14 -52 -30 -53 -35 -2 -5 -19 -31 -37 -58 l-34 -50
28 0 c42 0 92 39 129 100 48 80 45 84 -33 43z"/>
</g>
</svg>
